PathFileType	4	(X/Y/Z)	Walk4.trc
DataRate	CameraRate	NumFrames	NumMarkers	Units	OrigDataRate	OrigDataStartFrame	OrigNumFrames
200.000000	200.000000	8	61	mm	200.000000	632	877
Frame#	Times		RCAR		LTH3		RTH2		LBHD		LWRU		LUA1		LFA1		LCAR		RFA1		LElbow		RTB3		RTB1		RToe		RTB2		RMT5		RBHD		LWRR		LTH2		LElbowM		RPSI		C7		RLFC		RMT1		LTH4		STRN		LASI		RLMAL		RBack		T10		LTH1		LPSI		CLAV		LLFC		RUA1		LACR1		RCAL		LTB3		RElbowM		RTH3		LCAL		RTH1		RFHD		RElbow		LTB1		LMMAL		LTB2		LFHD		RTH4		RASI		LMFC		LTB4		RMMAL		LMT5		RMFC		RACR1		RWRR		RWRU		LLMAL		RTB4		LToe		LMT1
			X1	Y1	Z1	X2	Y2	Z2	X3	Y3	Z3	X4	Y4	Z4	X5	Y5	Z5	X6	Y6	Z6	X7	Y7	Z7	X8	Y8	Z8	X9	Y9	Z9	X10	Y10	Z10	X11	Y11	Z11	X12	Y12	Z12	X13	Y13	Z13	X14	Y14	Z14	X15	Y15	Z15	X16	Y16	Z16	X17	Y17	Z17	X18	Y18	Z18	X19	Y19	Z19	X20	Y20	Z20	X21	Y21	Z21	X22	Y22	Z22	X23	Y23	Z23	X24	Y24	Z24	X25	Y25	Z25	X26	Y26	Z26	X27	Y27	Z27	X28	Y28	Z28	X29	Y29	Z29	X30	Y30	Z30	X31	Y31	Z31	X32	Y32	Z32	X33	Y33	Z33	X34	Y34	Z34	X35	Y35	Z35	X36	Y36	Z36	X37	Y37	Z37	X38	Y38	Z38	X39	Y39	Z39	X40	Y40	Z40	X41	Y41	Z41	X42	Y42	Z42	X43	Y43	Z43	X44	Y44	Z44	X45	Y45	Z45	X46	Y46	Z46	X47	Y47	Z47	X48	Y48	Z48	X49	Y49	Z49	X50	Y50	Z50	X51	Y51	Z51	X52	Y52	Z52	X53	Y53	Z53	X54	Y54	Z54	X55	Y55	Z55	X56	Y56	Z56	X57	Y57	Z57	X58	Y58	Z58	X59	Y59	Z59	X60	Y60	Z60	X61	Y61	Z61

632	3.16	-255.26	838.61	309.33	-305.17	614.04	-184.52	-138.73	741.73	151.42	-290.43	1645.8	-114.39	-156.88	889.5	-331.94	-270.36	1306	-307.33	-220.77	1008.5	-350.03	-77.112	873.5	-344.3	-347.16	1000.7	285.09	-278.15	1150.5	-343.16	-170.86	212.08	100.9	-121.98	390.64	116.84	-62.945	51.6	149.18	-183.86	302	167.29	-160.38	39.368	181.64	-285.69	1655	27.331	-93.025	922.18	-289.93	-228.19	703.05	-174.81	-313.2	1132.5	-275.27	-437.64	1029.2	13.845	-320.3	1518.5	-38.943	-164.46	519.14	175.83	-102.8	46.961	117.61	-295.79	704.49	-199.67	-151.21	1252	-37.106	-226.77	1040.1	-167.47	-243.48	96.795	133.66	-405.32	1436.1	87.474	-432.58	1298.7	-41.221	-283.91	796.15	-214.27	-439.43	1028.5	-64.057	-192	1426.5	-36.179	-324.54	510.37	-173.76	-310.3	1298.2	221.51	-246.37	1471.9	-201.81	-289.78	61.932	73.763	-359.78	190.49	-93.273	-380.64	1133	177.42	-178.49	631.68	180.59	-491.48	31.639	-98.125	-239.95	813.5	178.81	-109.06	1685.9	-1.6371	-364.47	1149.8	255.39	-306.66	368.77	-93.807	-405.54	89.943	-53.586	-348.26	287.94	-165.22	-110.39	1682.2	-78.12	-203.19	723.5	184.84	-225.61	1043.7	117.33	-319.42	515.6	-43.246	-332.03	282.8	-92.311	-192.76	115.89	63.188	-331.87	21.127	-168.9	-141.29	527.86	46.449	-251.04	1466	125.2	-248.73	875.97	254.02	-314.76	867.31	292.48	-428.41	72.276	-137.3	-144.96	300.55	107.71	-232.37	28.809	-95.078	-287.8	38.175	-81.934
633	3.165	-253.22	838.42	310.77	-302.79	613.93	-184.46	-133.88	741.34	151.25	-285.15	1645.4	-113.91	-148.34	890.38	-332.36	-264.48	1306	-307.24	-213.05	1009	-350.54	-68.408	875.06	-344.73	-344.44	1000.7	285.79	-271.46	1150.6	-343.6	-157.34	211.25	101.89	-113.21	391.13	116.87	-44.792	53.55	150.15	-172.46	301.13	167.94	-141.78	39.019	183.18	-280.4	1654.6	27.805	-84.746	923.58	-290.34	-225.22	702.44	-174.53	-306.57	1132.1	-275.83	-432.82	1029	14.21	-315.01	1518.2	-38.543	-158.55	518.82	175.7	-84.742	47.961	118.82	-292.78	704.35	-199.48	-146.12	1251.6	-36.787	-222.12	1039.6	-167.13	-226.62	94.164	135.41	-400.18	1435.9	87.713	-427.5	1298.5	-40.853	-280.27	795.94	-214.01	-434.71	1028.2	-63.675	-186.78	1426	-35.776	-322.9	510.3	-173.74	-306.13	1298	221.94	-241.05	1471.6	-201.35	-272.34	57.933	75.821	-359.33	190.48	-93.302	-376.82	1132.9	177.77	-173.4	631.28	180.61	-491.49	32	-98.22	-233.31	813.05	178.94	-103.77	1685.5	-1.1604	-361.07	1149.9	255.8	-305.58	368.57	-93.812	-405.45	90.084	-53.615	-347.47	287.89	-165.24	-105.1	1681.8	-77.649	-198.23	723.17	185.07	-220.64	1043	117.63	-317.69	515.5	-43.197	-331.22	282.7	-92.338	-176.79	114.33	64.595	-331.91	21.096	-168.92	-136.09	527.42	45.996	-245.9	1465.6	125.67	-246.21	875.68	255.52	-312.58	867.22	293.37	-428.34	72.502	-137.36	-133.79	300.4	108.23	-232.39	28.786	-95.097	-287.81	38.176	-81.955
634	3.17	-251.11	838.2	312.21	-300.41	613.82	-184.39	-129.11	740.83	151.07	-279.86	1645	-113.42	-139.87	891.23	-332.75	-258.61	1305.9	-307.11	-205.38	1009.4	-351.02	-59.786	876.58	-345.1	-341.65	1000.8	286.5	-264.81	1150.6	-344	-143.93	210.54	102.86	-104.58	391.61	116.85	-26.805	55.676	150.99	-161.12	300.34	168.58	-123.28	38.87	184.66	-275.1	1654.1	28.294	-76.553	924.92	-290.69	-222.24	701.82	-174.25	-299.98	1131.8	-276.34	-427.98	1028.7	14.609	-309.72	1517.8	-38.121	-152.76	518.42	175.55	-66.846	49.162	119.91	-289.77	704.2	-199.28	-141.03	1251	-36.454	-217.49	1039.1	-166.78	-209.82	91.756	137.18	-395	1435.6	87.988	-422.41	1298.3	-40.446	-276.65	795.7	-213.74	-429.98	1027.9	-63.261	-181.55	1425.5	-35.362	-321.24	510.24	-173.7	-301.88	1297.8	222.39	-235.73	1471.3	-200.88	-254.96	54.203	77.914	-358.86	190.48	-93.329	-372.96	1132.9	178.13	-168.45	630.77	180.64	-491.51	32.375	-98.309	-227.08	812.54	179.1	-98.472	1685	-0.67245	-357.58	1150	256.22	-304.48	368.36	-93.813	-405.35	90.235	-53.641	-346.67	287.85	-165.25	-99.802	1681.4	-77.167	-193.34	722.74	185.27	-215.67	1042.3	117.97	-315.92	515.41	-43.147	-330.41	282.58	-92.356	-160.95	112.98	65.988	-331.95	21.068	-168.95	-130.94	526.89	45.525	-240.72	1465.2	126.14	-243.64	875.37	257.02	-310.33	867.1	294.26	-428.26	72.738	-137.41	-122.75	300.32	108.7	-232.4	28.765	-95.12	-287.83	38.177	-81.977
635	3.175	-248.95	837.96	313.65	-298.01	613.71	-184.31	-124.42	740.19	150.87	-274.56	1644.6	-112.91	-131.49	892.06	-333.11	-252.76	1305.8	-306.95	-197.77	1009.8	-351.45	-51.251	878.06	-345.42	-338.78	1000.8	287.23	-258.21	1150.6	-344.37	-130.66	209.97	103.79	-96.081	392.1	116.79	-9.0188	57.969	151.69	-149.85	299.62	169.22	-104.92	38.923	186.08	-269.79	1653.6	28.797	-68.447	926.22	-291	-219.27	701.19	-173.99	-293.42	1131.4	-276.81	-423.12	1028.3	15.044	-304.42	1517.5	-37.679	-147.07	517.96	175.4	-49.148	50.556	120.91	-286.77	704.04	-199.06	-135.93	1250.5	-36.107	-212.87	1038.6	-166.44	-193.11	89.578	138.96	-389.8	1435.3	88.301	-417.32	1298	-40.002	-273.04	795.46	-213.45	-425.25	1027.6	-62.813	-176.32	1425	-34.936	-319.56	510.18	-173.65	-297.56	1297.6	222.86	-230.41	1470.9	-200.38	-237.69	50.75	80.021	-358.38	190.47	-93.355	-369.06	1132.8	178.52	-163.61	630.17	180.67	-491.53	32.768	-98.392	-221.22	811.95	179.3	-93.158	1684.6	-0.17187	-354.02	1150	256.66	-303.37	368.16	-93.809	-405.25	90.397	-53.664	-345.86	287.82	-165.25	-94.493	1680.9	-76.672	-188.52	722.21	185.45	-210.69	1041.6	118.34	-314.1	515.35	-43.094	-329.59	282.47	-92.366	-145.25	111.83	67.357	-332.01	21.042	-168.97	-125.85	526.29	45.046	-235.5	1464.7	126.62	-241	875.04	258.51	-308.02	866.97	295.16	-428.17	72.986	-137.45	-111.86	300.31	109.14	-232.42	28.744	-95.144	-287.84	38.177	-81.999
636	3.18	-246.72	837.7	315.08	-295.6	613.6	-184.21	-119.8	739.45	150.67	-269.25	1644.1	-112.39	-123.19	892.86	-333.44	-246.92	1305.7	-306.76	-190.23	1010.2	-351.84	-42.803	879.5	-345.69	-335.83	1000.8	287.98	-251.64	1150.6	-344.69	-117.54	209.53	104.69	-87.726	392.58	116.7	8.5298	60.418	152.28	-138.68	298.98	169.84	-86.742	39.177	187.42	-264.47	1653.1	29.316	-60.427	927.46	-291.25	-216.29	700.55	-173.73	-286.89	1131.1	-277.24	-418.24	1027.9	15.517	-299.12	1517.1	-37.216	-141.49	517.44	175.24	-31.68	52.133	121.8	-283.76	703.88	-198.83	-130.83	1249.9	-35.747	-208.27	1038	-166.11	-176.53	87.636	140.72	-384.57	1435	88.651	-412.22	1297.8	-39.521	-269.42	795.2	-213.16	-420.5	1027.3	-62.331	-171.08	1424.5	-34.498	-317.86	510.12	-173.59	-293.16	1297.4	223.34	-225.09	1470.5	-199.87	-220.56	47.577	82.121	-357.88	190.47	-93.377	-365.12	1132.7	178.92	-158.88	629.48	180.7	-491.55	33.178	-98.469	-215.69	811.29	179.53	-87.833	1684	0.34267	-350.37	1150.1	257.12	-302.23	367.95	-93.797	-405.13	90.57	-53.686	-345.04	287.8	-165.25	-89.175	1680.5	-76.163	-183.76	721.59	185.62	-205.7	1040.8	118.74	-312.25	515.3	-43.036	-328.76	282.35	-92.367	-129.73	110.89	68.693	-332.06	21.016	-168.98	-120.82	525.63	44.565	-230.26	1464.2	127.12	-238.31	874.7	260	-305.65	866.82	296.08	-428.09	73.246	-137.49	-101.12	300.37	109.54	-232.44	28.723	-95.171	-287.85	38.177	-82.02
637	3.185	-244.41	837.42	316.51	-293.18	613.48	-184.09	-115.25	738.62	150.45	-263.94	1643.6	-111.84	-114.98	893.65	-333.74	-241.1	1305.6	-306.54	-182.76	1010.5	-352.18	-34.446	880.89	-345.92	-332.79	1000.8	288.75	-245.12	1150.6	-344.98	-104.6	209.21	105.55	-79.51	393.05	116.58	25.803	63.005	152.76	-127.61	298.42	170.45	-68.793	39.627	188.69	-259.14	1652.6	29.853	-52.495	928.66	-291.45	-213.3	699.91	-173.48	-280.4	1130.6	-277.63	-413.32	1027.5	16.027	-293.81	1516.6	-36.733	-136.01	516.87	175.08	-14.478	53.878	122.6	-280.75	703.71	-198.58	-125.72	1249.3	-35.375	-203.66	1037.4	-165.79	-160.11	85.932	142.44	-379.32	1434.6	89.04	-407.12	1297.4	-39.003	-265.82	794.94	-212.85	-415.73	1026.9	-61.81	-165.84	1423.9	-34.048	-316.13	510.07	-173.51	-288.7	1297.1	223.83	-219.78	1470	-199.34	-203.6	44.684	84.193	-357.37	190.48	-93.396	-361.14	1132.7	179.34	-154.25	628.71	180.74	-491.58	33.609	-98.539	-210.42	810.57	179.79	-82.497	1683.5	0.87243	-346.63	1150.1	257.61	-301.07	367.75	-93.778	-405	90.756	-53.705	-344.21	287.78	-165.25	-83.848	1679.9	-75.639	-179.06	720.88	185.77	-200.69	1040	119.17	-310.36	515.27	-42.971	-327.92	282.24	-92.357	-114.4	110.15	69.989	-332.13	20.992	-169	-115.86	524.91	44.088	-224.98	1463.7	127.62	-235.56	874.34	261.48	-303.2	866.66	297.02	-427.99	73.52	-137.53	-90.545	300.5	109.91	-232.45	28.703	-95.2	-287.86	38.177	-82.042
638	3.19	-242.04	837.11	317.93	-290.75	613.37	-183.96	-110.75	737.69	150.21	-258.61	1643.1	-111.28	-106.86	894.4	-334.01	-235.29	1305.4	-306.28	-175.36	1010.8	-352.48	-26.183	882.23	-346.1	-329.67	1000.8	289.53	-238.65	1150.5	-345.22	-91.861	209.03	106.36	-71.434	393.52	116.43	42.763	65.714	153.14	-116.67	297.95	171.03	-51.12	40.266	189.86	-253.8	1652	30.407	-44.653	929.8	-291.61	-210.3	699.27	-173.23	-273.95	1130.2	-277.97	-408.39	1027	16.576	-288.49	1516.2	-36.23	-130.62	516.26	174.91	2.4227	55.775	123.32	-277.73	703.54	-198.31	-120.61	1248.7	-34.991	-199.06	1036.8	-165.48	-143.9	84.465	144.13	-374.04	1434.3	89.469	-402.01	1297.1	-38.45	-262.2	794.66	-212.53	-410.94	1026.5	-61.251	-160.59	1423.3	-33.585	-314.38	510.02	-173.42	-284.16	1296.8	224.34	-214.46	1469.5	-198.79	-186.85	42.069	86.218	-356.85	190.49	-93.409	-357.09	1132.6	179.79	-149.69	627.85	180.77	-491.6	34.064	-98.599	-205.37	809.79	180.08	-77.151	1682.9	1.4184	-342.81	1150	258.12	-299.88	367.54	-93.752	-404.85	90.955	-53.722	-343.36	287.78	-165.23	-78.513	1679.4	-75.101	-174.41	720.09	185.9	-195.68	1039.2	119.62	-308.42	515.25	-42.895	-327.06	282.12	-92.337	-99.295	109.61	71.235	-332.2	20.969	-169.01	-110.96	524.14	43.618	-219.68	1463.1	128.14	-232.74	873.95	262.95	-300.67	866.47	297.98	-427.9	73.81	-137.55	-80.143	300.69	110.24	-232.47	28.684	-95.231	-287.88	38.177	-82.062
639	3.195	-239.59	836.78	319.35	-288.29	613.26	-183.8	-106.3	736.68	149.97	-253.28	1642.6	-110.7	-98.827	895.12	-334.23	-229.5	1305.2	-306	-168.02	1011.1	-352.73	-18.018	883.53	-346.23	-326.46	1000.8	290.35	-232.23	1150.4	-345.43	-79.333	208.96	107.12	-63.496	393.98	116.26	59.372	68.524	153.44	-105.89	297.56	171.59	-33.769	41.081	190.94	-248.45	1651.4	30.981	-36.902	930.89	-291.71	-207.29	698.61	-172.98	-267.53	1129.8	-278.26	-403.42	1026.5	17.163	-283.18	1515.7	-35.706	-125.31	515.6	174.74	18.987	57.802	123.96	-274.69	703.36	-198.02	-115.49	1248	-34.596	-194.45	1036.2	-165.18	-127.93	83.229	145.74	-368.75	1433.9	89.937	-396.89	1296.7	-37.861	-258.59	794.39	-212.21	-406.13	1026.1	-60.652	-155.34	1422.7	-33.108	-312.6	509.98	-173.31	-279.56	1296.5	224.87	-209.15	1469.1	-198.21	-170.34	39.727	88.178	-356.31	190.51	-93.416	-352.99	1132.4	180.28	-145.2	626.93	180.8	-491.62	34.543	-98.649	-200.5	808.95	180.39	-71.794	1682.3	1.9811	-338.9	1150	258.65	-298.66	367.34	-93.719	-404.69	91.168	-53.736	-342.49	287.78	-165.2	-73.169	1678.8	-74.546	-169.79	719.22	186.01	-190.64	1038.4	120.1	-306.43	515.24	-42.807	-326.19	282.01	-92.307	-84.441	109.27	72.425	-332.27	20.947	-169.01	-106.13	523.34	43.153	-214.35	1462.6	128.67	-229.86	873.54	264.42	-298.06	866.27	298.98	-427.8	74.117	-137.57	-69.921	300.95	110.54	-232.49	28.665	-95.263	-287.88	38.175	-82.083
